HIERARCHY
ROOT hip
{
	OFFSET 0.000000 0.000000 0.000000
	CHANNELS 6 Xposition Yposition Zposition Xrotation Zrotation Yrotation 
	JOINT abdomen
	{
		OFFSET 0.000000 3.422050 0.000000
		CHANNELS 3 Xrotation Zrotation Yrotation 
		JOINT chest
		{
			OFFSET 0.000000 8.486693 -0.684411
			CHANNELS 3 Xrotation Zrotation Yrotation 
			JOINT neck
			{
				OFFSET 0.000000 10.266162 -0.273764
				CHANNELS 3 Xrotation Zrotation Yrotation 
				JOINT head
				{
					OFFSET 0.000000 3.148285 0.000000
					CHANNELS 3 Xrotation Zrotation Yrotation 
					End Site
					{
						OFFSET 0.000000 3.148289 0.000000
					}
				}
			}
			JOINT lCollar
			{
				OFFSET 3.422053 6.707223 -0.821293
				CHANNELS 3 Yrotation Zrotation Xrotation 
				JOINT lShldr
				{
					OFFSET 3.285171 0.000000 0.000000
					CHANNELS 3 Zrotation Yrotation Xrotation 
					JOINT lForeArm
					{
						OFFSET 10.129278 0.000000 0.000000
						CHANNELS 3 Yrotation Zrotation Xrotation 
						JOINT lHand
						{
							OFFSET 8.486692 0.000000 0.000000
							CHANNELS 3 Zrotation Yrotation Xrotation 
							End Site
							{
								OFFSET 4.106464 0.000000 0.000000
							}
						}
					}
				}
			}
			JOINT rCollar
			{
				OFFSET -3.558935 6.707223 -0.821293
				CHANNELS 3 Yrotation Zrotation Xrotation 
				JOINT rShldr
				{
					OFFSET -3.148289 0.000000 0.000000
					CHANNELS 3 Zrotation Yrotation Xrotation 
					JOINT rForeArm
					{
						OFFSET -10.266159 0.000000 0.000000
						CHANNELS 3 Yrotation Zrotation Xrotation 
						JOINT rHand
						{
							OFFSET -8.349810 0.000000 0.000000
							CHANNELS 3 Zrotation Yrotation Xrotation 
							End Site
							{
								OFFSET -4.106464 0.000000 0.000000
							}
						}
					}
				}
			}
		}
	}
	JOINT lThigh
	{
		OFFSET 5.338403 -1.642589 1.368821
		CHANNELS 3 Xrotation Zrotation Yrotation 
		JOINT lShin
		{
			OFFSET -2.053232 -20.121670 0.000000
			CHANNELS 3 Xrotation Zrotation Yrotation 
			JOINT lFoot
			{
				OFFSET 0.000000 -19.300380 -1.231939
				CHANNELS 3 Xrotation Yrotation Zrotation 
				End Site
				{
					OFFSET 0.000000 -2.463878 4.653993
				}
			}
		}
	}
	JOINT rThigh
	{
		OFFSET -5.338403 -1.642589 1.368821
		CHANNELS 3 Xrotation Zrotation Yrotation 
		JOINT rShin
		{
			OFFSET 2.053232 -20.121670 0.000000
			CHANNELS 3 Xrotation Zrotation Yrotation 
			JOINT rFoot
			{
				OFFSET 0.000000 -19.300380 -1.231939
				CHANNELS 3 Xrotation Yrotation Zrotation 
				End Site
				{
					OFFSET 0.000000 -2.463878 4.653993
				}
			}
		}
	}
}
MOTION
Frames: 19
Frame Time: 0.033264
-0.000000 12.995491 58.996437 0.012240 -0.012240 180.000000 77.372803 -0.588221 -0.546108 6.238887 0.389136 -0.468241 -44.011051 11.332923 -0.002587 -5.778336 8.506041 0.089493 35.636028 -11.968956 -55.884697 -81.758224 -36.889725 19.583008 -93.529076 -6.673286 55.109474 15.464182 5.963849 -29.956940 -19.952166 4.646652 -22.252525 90.378777 37.430058 22.416353 72.784348 -20.175203 -10.720572 8.166116 16.595934 14.512427 -54.963085 8.259420 -0.760431 149.076401 5.589597 0.136437 55.471035 7.014373 5.697695 -54.980427 -8.261411 0.727218 149.082169 -5.616373 -0.154741 55.478584 -7.035175 -5.698458 
-0.000000 12.995491 58.996437 0.012240 -0.012240 180.000000 77.127762 -0.586640 -0.544229 8.226787 0.388017 -0.466339 -44.011173 10.667000 -0.002446 -4.551845 8.011463 0.170182 36.240551 -13.174115 -58.149048 -81.766617 -36.877182 19.591618 -94.310265 -6.777001 55.062943 14.464695 7.072490 -30.177546 -22.849033 6.213419 -24.291222 91.128403 37.255543 23.188904 75.562607 -19.107632 -9.892287 7.986714 12.159879 12.636236 -54.963085 8.259420 -0.760431 149.076401 5.589597 0.136437 55.471035 7.014373 5.697695 -54.980427 -8.261411 0.727218 149.082169 -5.616373 -0.154741 55.478584 -7.035175 -5.698458 
-0.000000 12.995491 58.996437 0.012240 -0.012240 180.000000 76.882721 -0.585051 -0.542357 10.223248 0.386827 -0.464469 -44.011318 10.000766 -0.002304 -3.325230 7.514364 0.240199 36.801075 -14.407410 -60.422531 -81.774979 -36.864635 19.600220 -95.092209 -6.880148 55.014938 13.455892 8.179774 -30.418831 -25.701433 7.882048 -26.256886 91.873642 37.072945 23.957111 78.323792 -17.996721 -9.120021 7.956316 7.712702 10.796142 -54.963085 8.259420 -0.760431 149.076401 5.589597 0.136437 55.471035 7.014373 5.697695 -54.980427 -8.261411 0.727218 149.082169 -5.616373 -0.154741 55.478584 -7.035175 -5.698458 
-0.000000 12.995491 58.996437 0.012240 -0.012240 180.000000 76.637703 -0.583454 -0.540492 12.227095 0.385567 -0.462635 -44.011459 9.334262 -0.002161 -2.098632 7.015100 0.299488 37.315361 -15.665784 -62.704689 -81.783363 -36.852085 19.608822 -95.874855 -6.982687 54.965492 12.437277 9.284931 -30.681110 -28.503918 9.642711 -28.142740 92.614243 36.882339 24.720734 81.065689 -16.846199 -8.405896 8.068727 3.274654 8.975301 -54.963085 8.259420 -0.760431 149.076401 5.589597 0.136437 55.471035 7.014373 5.697695 -54.980427 -8.261411 0.727218 149.082169 -5.616373 -0.154741 55.478584 -7.035175 -5.698458 
-0.000000 12.995491 58.996437 0.012240 -0.012240 180.000000 76.392685 -0.581849 -0.538633 14.237155 0.384241 -0.460840 -44.011581 8.667526 -0.002016 -0.872194 6.514023 0.348002 37.781216 -16.945955 -64.995125 -81.791725 -36.839535 19.617420 -96.658150 -7.084599 54.914604 11.408345 10.387176 -30.964705 -31.252262 11.484767 -29.943140 93.349998 36.683804 25.479561 83.786446 -15.660051 -7.751617 8.320128 -1.134351 7.158010 -54.963085 8.259420 -0.760431 149.076401 5.589597 0.136437 55.471035 7.014373 5.697695 -54.980427 -8.261411 0.727218 149.082169 -5.616373 -0.154741 55.478584 -7.035175 -5.698458 
-0.000000 12.995491 58.996437 0.012240 -0.012240 180.000000 76.147690 -0.580237 -0.536782 16.252205 0.382848 -0.459090 -44.011723 8.000613 -0.001870 0.353944 6.011496 0.385708 38.196625 -18.244534 -67.293648 -81.800095 -36.826981 19.626015 -97.441971 -7.185845 54.862278 10.368597 11.485710 -31.269936 -34.176746 12.894416 -32.061947 94.080719 36.477448 26.233400 86.484543 -14.442472 -7.158463 7.996290 -5.539316 5.341430 -54.963085 8.259420 -0.760431 149.076401 5.589597 0.136437 55.471035 7.014373 5.697695 -54.980427 -8.261411 0.727218 149.082169 -5.616373 -0.154741 55.478584 -7.035175 -5.698458 
-0.000000 12.995491 58.996437 0.012240 -0.012240 180.000000 75.902725 -0.578616 -0.534938 18.271008 0.381392 -0.457386 -44.011864 7.333566 -0.001723 1.579644 5.507880 0.412587 38.559692 -19.557964 -69.600113 -81.808441 -36.814423 19.634602 -98.226311 -7.286406 54.808548 9.317531 12.579727 -31.597136 -37.079254 14.415756 -34.127922 94.806206 36.263374 26.982040 89.158684 -13.197816 -6.627321 7.810231 -9.975656 3.521405 -54.963085 8.259420 -0.760431 149.076401 5.589597 0.136437 55.471035 7.014373 5.697695 -54.980427 -8.261411 0.727218 149.082169 -5.616373 -0.154741 55.478584 -7.035175 -5.698458 
-0.000000 12.995491 58.996437 0.012240 -0.012240 180.000000 75.657768 -0.576988 -0.533101 20.292326 0.379875 -0.455732 -44.011997 6.666426 -0.001574 2.804768 5.003539 0.428630 38.868656 -20.882626 -71.914581 -81.816811 -36.801876 19.643190 -99.011078 -7.386244 54.753410 8.254636 13.668407 -31.946640 -39.952374 16.040749 -36.131966 95.526260 36.041676 27.725313 91.807899 -11.930552 -6.158688 7.766506 -14.423456 1.682231 -54.963085 8.259420 -0.760431 149.076401 5.589597 0.136437 55.471035 7.014373 5.697695 -54.980427 -8.261411 0.727218 149.082169 -5.616373 -0.154741 55.478584 -7.035175 -5.698458 
-0.000000 12.995491 58.996437 0.012240 -0.012240 180.000000 75.412842 -0.575352 -0.531271 22.314905 0.378300 -0.454132 -44.012146 5.999242 -0.001423 4.029183 4.498836 0.433841 39.121899 -22.214794 -74.237129 -81.825172 -36.789326 19.651779 -99.796158 -7.485326 54.696865 7.179411 14.750922 -32.318771 -42.789661 17.760031 -38.065796 96.240700 35.812466 28.463017 94.431427 -10.645221 -5.752703 7.872158 -18.862465 -0.193211 -54.963085 8.259420 -0.760431 149.076401 5.589597 0.136437 55.471035 7.014373 5.697695 -54.980427 -8.261411 0.727218 149.082169 -5.616373 -0.154741 55.478584 -7.035175 -5.698458 
-0.000000 12.995491 58.996437 0.012240 -0.012240 180.000000 75.167931 -0.573709 -0.529449 24.337482 0.376669 -0.452588 -44.012283 5.332056 -0.001271 5.252749 3.994136 0.428236 39.317959 -23.550734 -76.568008 -81.833511 -36.776760 19.660349 -100.581535 -7.583638 54.638962 6.091350 15.826435 -32.713879 -45.585865 19.563248 -39.922195 96.949394 35.575855 29.195013 97.028694 -9.346368 -5.409159 8.137112 -23.272356 -2.123965 -54.963085 8.259420 -0.760431 149.076401 5.589597 0.136437 55.471035 7.014373 5.697695 -54.980427 -8.261411 0.727218 149.082169 -5.616373 -0.154741 55.478584 -7.035175 -5.698458 
-0.000000 12.995491 58.996437 0.012240 -0.012240 180.000000 74.923058 -0.572058 -0.527633 26.358801 0.374986 -0.451104 -44.012432 4.664917 -0.001118 6.475336 3.489807 0.411845 39.455536 -24.886690 -78.907501 -81.841858 -36.764202 19.668926 -101.367111 -7.681138 54.579670 4.989960 16.894096 -33.132267 -48.336842 21.439240 -41.694923 97.652145 35.331959 29.921120 99.599342 -8.038529 -5.127549 7.780196 -27.676710 -3.819207 -54.963085 8.259420 -0.760431 149.076401 5.589597 0.136437 55.471035 7.014373 5.697695 -54.980427 -8.261411 0.727218 149.082169 -5.616373 -0.154741 55.478584 -7.035175 -5.698458 
-0.000000 12.995491 58.996437 0.012240 -0.012240 180.000000 74.678215 -0.570400 -0.525825 28.377609 0.373253 -0.449682 -44.012573 3.997868 -0.000963 7.696805 2.986209 0.384708 39.533466 -26.218916 -81.255974 -81.850197 -36.751644 19.677496 -102.152824 -7.777810 54.519051 3.874742 17.953064 -33.574295 -51.232201 22.815372 -43.823719 98.348824 35.080902 30.641205 102.143127 -6.726159 -4.907070 7.560174 -32.112133 -5.568140 -54.963085 8.259420 -0.760431 149.076401 5.589597 0.136437 55.471035 7.014373 5.697695 -54.980427 -8.261411 0.727218 149.082169 -5.616373 -0.154741 55.478584 -7.035175 -5.698458 
-0.000000 12.995491 58.996437 0.012240 -0.012240 180.000000 74.433388 -0.568733 -0.524024 30.392649 0.371475 -0.448325 -44.012730 3.330956 -0.000807 8.917026 2.483706 0.346877 40.044716 -27.464848 -83.507469 -81.858536 -36.739086 19.686066 -102.938614 -7.873622 54.457108 2.745217 19.002487 -34.040268 -54.122665 24.300438 -45.912212 99.039284 34.822788 31.355122 104.659920 -5.413611 -4.746665 7.496687 -36.559208 -7.394271 -54.963085 8.259420 -0.760431 149.076401 5.589597 0.136437 55.471035 7.014373 5.697695 -54.980427 -8.261411 0.727218 149.082169 -5.616373 -0.154741 55.478584 -7.035175 -5.698458 
-0.000000 12.995491 58.996437 0.012240 -0.012240 180.000000 74.188622 -0.567060 -0.522231 32.402695 0.369655 -0.447033 -44.012882 2.664223 -0.000649 10.135860 1.982654 0.298419 40.506824 -28.730881 -85.778221 -81.866859 -36.726521 19.694628 -103.724365 -7.968545 54.393833 1.600908 20.041491 -34.530491 -57.000488 25.887148 -47.950214 99.723412 34.557755 32.062752 107.149712 -4.105093 -4.645042 7.616348 -40.997753 -9.327947 -54.963085 8.259420 -0.760431 149.076401 5.589597 0.136437 55.471035 7.014373 5.697695 -54.980427 -8.261411 0.727218 149.082169 -5.616373 -0.154741 55.478584 -7.035175 -5.698458 
-0.000000 12.995491 58.996437 0.012240 -0.012240 180.000000 73.943878 -0.565379 -0.520445 34.406551 0.367797 -0.445810 -44.013031 1.997717 -0.000489 11.353175 1.483410 0.239408 40.916916 -30.013681 -88.068497 -81.875206 -36.713963 19.703192 -104.510040 -8.062551 54.329285 0.441357 21.069229 -35.045269 -59.858753 27.566769 -49.928165 100.401077 34.285927 32.763969 109.820892 -2.921112 -4.063562 7.955696 -45.406956 -11.409298 -54.963085 8.259420 -0.760431 149.076401 5.589597 0.136437 55.471035 7.014373 5.697695 -54.980427 -8.261411 0.727218 149.082169 -5.616373 -0.154741 55.478584 -7.035175 -5.698458 
-0.000000 12.995491 58.996437 0.012240 -0.012240 180.000000 73.699188 -0.563691 -0.518667 36.403008 0.365904 -0.444657 -44.013176 1.331480 -0.000328 12.568836 0.986323 0.169933 41.272205 -31.309807 -90.378746 -81.883530 -36.701401 19.711744 -105.295593 -8.155635 54.263454 -0.733881 22.084846 -35.584904 -62.691494 29.329346 -51.837215 101.072166 34.007435 33.458668 112.481186 -1.709817 -3.537743 7.699884 -49.830189 -13.097530 -54.963085 8.259420 -0.760431 149.076401 5.589597 0.136437 55.471035 7.014373 5.697695 -54.980427 -8.261411 0.727218 149.082169 -5.616373 -0.154741 55.478580 -7.035175 -5.698458 
-0.000000 12.995491 58.996437 0.012240 -0.012240 180.000000 73.454514 -0.561995 -0.516896 38.390896 0.363980 -0.443576 -44.013340 0.665560 -0.000165 13.782708 0.491740 0.090094 41.569908 -32.615643 -92.709534 -81.891861 -36.688831 19.720299 -106.080894 -8.247744 54.196381 -1.925229 23.087465 -36.149635 -65.493774 31.163931 -53.669262 101.736610 33.722412 34.146763 115.129166 -0.475493 -3.068921 7.640507 -54.264462 -14.931332 -54.963085 8.259420 -0.760431 149.076401 5.589597 0.136437 55.471035 7.014373 5.697695 -54.980427 -8.261411 0.727218 149.082169 -5.616373 -0.154741 55.478592 -7.035176 -5.698457 
-0.000000 12.995491 58.996437 0.012240 -0.012240 180.000000 73.209915 -0.560293 -0.515133 40.369102 0.362030 -0.442566 -44.013500 0.000000 0.000000 14.994649 0.000000 0.000000 41.807358 -33.927525 -95.061638 -81.900169 -36.676277 19.728849 -106.865898 -8.338867 54.128059 -3.133091 24.076250 -36.739738 -68.261856 33.058929 -55.417110 102.394295 33.430984 34.828152 117.763634 0.777457 -2.658105 7.845978 -58.689610 -16.980091 -54.963085 8.259420 -0.760431 149.076401 5.589597 0.136437 55.471035 7.014373 5.697695 -54.980427 -8.261411 0.727218 149.082169 -5.616373 -0.154741 55.478584 -7.035175 -5.698458 
-0.000000 12.995491 58.996437 0.012240 -0.012240 180.000000 72.965332 -0.558583 -0.513377 37.753708 0.361828 -0.442328 -39.925549 0.000000 0.000000 12.627053 0.000000 0.000000 41.065929 -31.054705 -91.924110 -81.908501 -36.663712 19.737398 -106.081642 -8.248689 54.191380 -1.756396 23.092991 -34.139305 -65.625450 30.120804 -54.320332 102.044846 33.361675 34.301636 116.693947 0.496929 -2.724334 7.845976 -58.689602 -16.980089 -54.963085 8.259420 -0.760431 149.076401 5.589597 0.136437 55.471035 7.014373 5.697695 -54.980427 -8.261411 0.727218 149.082169 -5.616373 -0.154741 55.478580 -7.035175 -5.698458 
